<?xml version="1.0"?>
<svg viewBox="0 0 506 173" xmlns="http://www.w3.org/2000/svg" xmlns:svg="http://www.w3.org/2000/svg" preserveAspectRatio="xMidYMid meet" version="1.0">
 <g class="layer">
  <title>Layer 1</title>
  <g fill="#000000" id="svg_1" transform="matrix(0.1 0 0 -0.1 0 0)">
   <path style="stroke: rgb(255,0,0); stroke-width: 2; stroke-dasharray: none; stroke-linecap: butt; stroke-dashoffset: 0; stroke-linejoin: miter; stroke-miterlimit: 4; fill: rgb(0,0,0); fill-rule: nonzero; opacity: 1;" vector-effect="non-scaling-stroke" d="m1935,-66c-371,-23 -842,-135 -1210,-287c-99,-42 -101,-42 -255,-47l-155,-5l70,-49c39,-27 72,-51 74,-52c3,-3 -23,-193 -54,-389c-4,-24 -17,-37 -60,-63l-55,-33l0,-154l0,-153l78,-18c64,-16 84,-25 123,-61l46,-43l150,0l149,0l-1,103c0,90 3,109 26,158c56,119 165,191 299,197c99,5 170,-21 245,-89c99,-92 140,-230 101,-349c-9,-28 -14,-55 -11,-60c4,-6 391,-10 1040,-10l1033,0l-19,61c-24,78 -24,131 1,212c26,84 96,164 178,204c50,25 68,28 152,28c84,0 101,-3 148,-28c67,-35 124,-92 159,-159c24,-46 27,-65 28,-143c0,-49 -3,-102 -8,-117l-7,-28l216,0c151,0 233,4 273,14c31,8 68,17 84,20c24,6 27,11 27,50c0,38 -3,45 -25,50c-19,5 -25,13 -25,35c0,22 7,31 30,41c30,12 30,12 30,97c0,76 -3,88 -25,115c-17,20 -25,42 -25,66c0,52 -50,134 -113,183c-138,110 -457,204 -736,216l-134,6l-181,88c-434,209 -784,329 -1096,374c-103,15 -448,26 -565,19zm476,-35c57,-5 151,-19 208,-30c146,-28 466,-129 630,-198c177,-75 506,-234 493,-239c-6,-2 -77,27 -159,63c-663,298 -917,370 -1378,390c-248,12 -592,-21 -805,-75c-112,-28 -277,-87 -518,-184c-118,-47 -222,-86 -232,-86c-17,0 -47,27 -39,34c10,8 235,93 354,133c313,105 598,167 905,196c86,9 448,6 541,-4zm-106,-29c372,-27 646,-105 1108,-312c346,-155 304,-142 447,-139c247,5 591,-82 741,-187c75,-53 74,-62 -8,-62c-52,0 -79,6 -115,24c-26,13 -80,30 -120,36c-40,7 -180,50 -310,97c-131,47 -242,83 -247,81c-5,-1 80,-34 190,-73l200,-70l-52,-5c-29,-3 -54,-10 -56,-17c-3,-7 25,-31 62,-54c36,-23 64,-43 62,-46c-2,-2 -174,10 -381,27c-208,16 -379,30 -382,30c-2,0 -4,25 -4,55l0,56l135,-7c98,-5 135,-4 135,4c0,65 -637,367 -941,446c-224,58 -334,71 -614,70c-281,0 -398,-13 -650,-69c-123,-28 -391,-110 -399,-123c-2,-4 30,-46 72,-94c76,-87 77,-88 125,-88c27,0 47,-5 47,-11c0,-16 -33,-69 -42,-69c-32,0 -516,42 -528,45c-9,3 -39,29 -68,58l-53,53l268,106c400,158 514,190 788,223c218,25 386,30 590,15zm-125,-65c0,-10 -10,-15 -27,-15c-140,-1 -427,-26 -525,-46c-22,-4 -27,-2 -23,9c10,25 291,64 478,66c80,1 97,-2 97,-14zm92,-170c35,-234 35,-233 1,-238c-27,-4 -27,-4 3,-6c29,-1 32,-4 41,-51c6,-30 6,-50 1,-50c-25,0 -909,71 -945,76l-43,5l16,30c8,17 22,33 30,36c8,3 204,-5 434,-17c231,-13 422,-22 424,-19c2,2 -5,76 -15,164c-9,88 -20,182 -23,208c-5,48 -5,48 22,45c26,-3 26,-3 54,-183zm74,-10c42,-241 42,-227 2,-223l-33,3l-27,175c-14,96 -27,190 -27,208c-1,30 1,33 26,30c27,-3 27,-4 59,-193zm284,149c156,-30 312,-80 490,-156l125,-53l3,-53c3,-47 1,-52 -17,-52c-17,0 -21,6 -21,34c0,28 -7,40 -32,60c-64,48 -345,149 -503,180c-66,13 -308,46 -337,46c-4,0 -8,8 -8,18c0,17 7,17 83,10c45,-4 143,-19 217,-34zm-1040,-21c0,-18 -185,-303 -197,-303c-8,0 -12,3 -10,8c63,113 183,302 193,302c8,0 14,-3 14,-7zm-52,-15c-3,-7 -51,-24 -109,-38c-57,-15 -143,-39 -190,-53c-89,-28 -131,-34 -114,-18c19,17 359,119 403,121c8,0 12,-5 10,-12zm-924,-187c21,-23 15,-28 -58,-39c-53,-8 -60,-7 -101,19c-25,16 -45,31 -45,34c0,3 42,5 93,5c80,0 97,-3 111,-19zm87,-82c32,-29 59,-56 59,-61c0,-13 -189,-272 -201,-276c-13,-5 -12,2 16,154c27,147 26,155 -26,192c-23,16 -23,16 26,28c28,6 54,12 58,13c5,0 35,-22 68,-50zm-165,0c49,-30 53,-44 40,-124l-12,-70l-49,3c-28,2 -52,5 -54,8c-4,3 15,135 26,182c6,27 7,27 49,1zm2967,-25c74,-37 187,-114 187,-126c0,-8 -35,-9 -112,-5c-62,4 -136,7 -164,7c-50,0 -52,1 -56,30c-4,28 -3,30 29,30c31,0 33,3 44,45c6,25 13,45 16,45c2,0 27,-12 56,-26zm-197,-19c26,-17 41,-42 30,-52c-5,-5 -126,10 -183,24c-28,6 -20,21 21,39c37,17 97,12 132,-11zm-2256,-45c129,-11 241,-20 248,-20c8,0 12,-17 12,-50c0,-70 17,-105 119,-244c134,-184 151,-211 176,-284c34,-100 35,-102 66,-117c24,-13 151,-15 877,-15c755,0 851,2 862,15c9,11 26,15 54,13c38,-3 41,-5 47,-38c3,-19 9,-45 13,-57l7,-23l-1004,0l-1004,0l14,65c54,264 -186,493 -451,431l-69,-16l-27,25c-24,23 -41,26 -215,45c-104,11 -190,21 -191,23c-1,1 41,62 94,135c70,96 102,132 116,132c12,0 127,-9 256,-20zm1777,-25c283,-22 293,-24 323,-48c32,-28 76,-37 180,-40c62,-2 65,-1 64,21c0,16 4,22 15,20c12,-2 17,-17 19,-56l3,-53l-63,6c-35,4 -278,24 -541,44c-263,21 -482,42 -486,47c-5,5 -11,29 -15,53l-7,43l108,-7c59,-4 240,-17 400,-30zm428,14c88,-13 98,-17 85,-38c-7,-13 -21,-13 -92,-2c-110,16 -118,19 -118,43c0,16 5,19 23,15c12,-3 58,-11 102,-18zm-1385,-55c250,-19 457,-38 460,-41c3,-2 5,-112 5,-243c0,-168 -3,-242 -12,-251c-8,-8 -102,9 -385,70c-205,45 -380,84 -389,87c-17,5 -174,215 -208,279c-20,38 -29,123 -15,138c4,3 25,4 48,1c22,-2 246,-20 496,-40zm1434,-21c-10,-7 -32,-13 -48,-13c-34,0 -116,34 -116,48c0,5 41,2 91,-6c81,-14 89,-17 73,-29zm70,11c33,-13 17,-34 -26,-34c-40,0 -41,0 -23,20c20,22 25,23 49,14zm-499,-69c248,-19 474,-37 504,-41l54,-6l-8,-241c-3,-133 -10,-245 -13,-249c-6,-6 -1043,58 -1068,67c-7,2 -8,27 -2,81c5,44 8,159 6,256l-3,177l40,-5c22,-2 243,-20 490,-39zm-2318,21c2,-2 -3,-32 -10,-67c-12,-62 -14,-65 -59,-89c-26,-13 -49,-22 -53,-19c-3,4 0,48 6,99l12,92l51,-7c28,-3 52,-8 53,-9zm3741,-26c143,-23 199,-48 260,-114c68,-74 62,-77 -108,-47c-63,11 -126,29 -157,45c-63,31 -190,112 -198,126c-10,16 69,12 203,-10zm-408,-75c310,-24 390,-35 390,-55c0,-3 -40,-29 -88,-56l-89,-51l-48,28c-99,57 -234,60 -341,8c-104,-50 -188,-164 -202,-276l-7,-58l-39,-3l-39,-3l6,182c4,100 7,214 7,252l0,69l53,-6c28,-3 207,-17 397,-31zm825,-47c24,-51 32,-98 19,-110c-13,-14 -107,41 -126,74c-11,18 -32,45 -46,61l-26,27l78,0l77,0l24,-52zm-3939,-8c139,-15 192,-25 206,-37c25,-22 23,-37 -8,-54c-46,-24 -122,-117 -145,-177c-16,-41 -23,-79 -23,-139l-1,-83l-130,0l-129,0l-38,37l-38,37l0,152l0,151l50,67c28,36 55,66 60,66c4,0 93,-9 196,-20zm-275,-53l-41,-54l0,-151c0,-115 -3,-152 -12,-152c-7,0 -40,8 -73,18l-60,18l-3,132l-3,131l43,27c49,31 181,94 186,89c2,-2 -15,-28 -37,-58zm3859,29c25,-7 90,-19 145,-26c66,-9 122,-23 163,-42l64,-28l-7,-147c-4,-82 -10,-151 -14,-154c-3,-4 -23,-12 -44,-19c-50,-16 -216,-4 -224,16c-9,25 27,218 46,244c16,22 28,26 97,31l79,5l-77,2c-113,3 -124,-12 -149,-204l-12,-94l-87,0l-87,0l-6,66c-8,80 -45,165 -94,216c-20,21 -33,41 -29,45c16,17 162,101 176,102c8,0 35,-5 60,-13zm430,-203c0,-56 -3,-64 -25,-79c-14,-9 -28,-15 -30,-12c-3,2 -2,48 2,101l6,98l24,-22c19,-19 23,-32 23,-86zm-2847,-35c207,-45 377,-87 377,-92c0,-6 -5,-28 -11,-48l-10,-38l-303,0c-355,0 -340,-4 -376,108c-12,37 -33,86 -47,110c-13,23 -20,42 -16,42c4,0 178,-37 386,-82zm907,-118c518,-34 557,-37 543,-51c-5,-5 -224,-8 -544,-7l-535,3l9,43c7,37 11,42 35,42c15,0 236,-13 492,-30zm1911,-50c26,-14 24,-38 -3,-50c-67,-28 -166,-40 -339,-40l-180,0l3,33l3,32l215,0c184,0 219,2 245,17c36,21 32,20 56,8z" id="svg_2"/>
   <path d="m901,-716c-25,-20 -31,-34 -31,-64c0,-30 6,-44 31,-64c33,-28 59,-32 92,-14c33,17 46,39 46,78c0,39 -13,61 -46,78c-33,18 -59,14 -92,-14zm104,-9c16,-15 25,-36 25,-55c0,-38 -39,-80 -75,-80c-33,0 -75,42 -75,75c0,74 76,110 125,60z" id="svg_3"/>
   <path d="m1465,-690c-87,-35 -28,-120 82,-120c86,0 129,32 104,78c-21,40 -132,65 -186,42zm130,-14c49,-21 43,-28 -17,-21c-105,12 -123,16 -107,26c21,13 85,11 124,-5zm-2,-32c39,-4 57,-11 57,-20c0,-16 -54,-17 -152,-5c-62,8 -74,13 -63,31c5,7 24,10 54,6c25,-3 72,-8 104,-12zm-35,-40c34,-4 59,-11 56,-15c-8,-14 -117,-10 -144,6l-25,14l26,1c14,0 54,-3 87,-6z" id="svg_4"/>
   <path d="m2433,-760c-32,-13 -46,-45 -33,-71c33,-60 207,-66 225,-8c20,61 -107,113 -192,79zm137,-15c40,-21 38,-26 -7,-20c-21,2 -60,7 -87,11c-35,4 -45,8 -35,15c22,14 97,10 129,-6zm3,-31c31,-4 47,-11 47,-20c0,-16 -29,-17 -138,-5c-79,9 -88,13 -77,31c7,12 25,11 168,-6zm-23,-43c34,-6 41,-10 27,-16c-24,-10 -125,-1 -139,13c-14,14 39,15 112,3z" id="svg_5"/>
   <path d="m4503,-1097c3,-10 16,-62 28,-115c21,-89 25,-98 46,-98c22,0 23,4 23,63c-1,47 -3,58 -11,45c-24,-42 -52,-14 -64,65l-7,47l30,0c26,0 31,-4 35,-27c4,-26 4,-26 6,5c1,32 0,32 -45,32c-38,0 -45,-3 -41,-17zm87,-168c0,-40 -24,-49 -34,-12c-10,37 -7,47 14,47c16,0 20,-7 20,-35z" id="svg_6"/>
   <path d="m1079,-985c-110,-35 -193,-121 -225,-233c-44,-152 36,-321 185,-391l56,-26l-400,-5c-220,-3 658,-5 1950,-5c1293,0 2116,2 1830,5l-520,5l55,26c117,55 186,153 197,278c16,193 -138,361 -333,361c-101,0 -214,-61 -270,-144c-96,-145 -75,-319 52,-435c30,-28 73,-56 95,-62c21,-7 39,-16 39,-21c0,-4 -569,-8 -1265,-8c-696,0 -1265,2 -1265,4c0,2 24,16 54,30c70,34 128,93 163,164c39,80 39,191 1,273c-69,150 -248,232 -399,184zm207,-130c170,-99 127,-363 -66,-404c-64,-14 -113,-4 -169,33c-54,36 -101,118 -101,176c0,174 187,282 336,195zm2691,7c76,-40 117,-108 118,-197c1,-195 -237,-293 -375,-155c-176,176 35,465 257,352z" id="svg_7"/>
   <path d="m1105,-1125c-22,-8 -54,-30 -72,-49c-114,-124 -26,-321 142,-319c74,0 139,42 175,111c33,65 2,188 -57,230c-61,42 -121,51 -188,27zm45,-40c0,-56 -17,-66 -60,-35c-17,12 -33,20 -36,17c-9,-8 65,-49 83,-45c13,2 19,14 21,43c1,22 5,47 8,55c9,22 22,-15 23,-62c1,-32 5,-38 22,-38c11,0 33,8 47,18c64,44 70,35 18,-27c-33,-39 -34,-40 -51,-21c-23,26 -80,26 -101,1c-15,-17 -18,-16 -54,23l-39,41l25,26c14,15 40,31 57,37c18,5 33,10 35,11c1,1 2,-19 2,-44zm121,15c10,-6 19,-15 19,-20c0,-10 -62,-50 -78,-50c-10,0 -23,78 -15,92c4,7 38,-3 74,-22zm-215,-86c19,-15 34,-32 34,-39c0,-12 -67,-45 -90,-45c-6,0 -10,8 -10,18c0,23 20,92 26,92c3,0 21,-12 40,-26zm280,14c4,-6 10,-29 14,-50c8,-43 -1,-47 -59,-27c-38,13 -38,19 -5,58c28,33 39,38 50,19zm-115,-49c6,-12 9,-33 6,-47c-3,-15 3,-53 14,-86c15,-51 18,-81 6,-65c-35,45 -64,99 -52,99c7,0 16,3 18,8c3,4 -14,7 -38,7c-24,0 -41,-3 -38,-7c2,-5 11,-8 19,-8c9,0 2,-17 -22,-50c-20,-28 -39,-49 -41,-46c-3,3 2,24 12,48c9,24 17,65 16,92c-1,60 11,76 55,76c24,0 37,-6 45,-21zm127,-69c4,-10 -3,-11 -28,-7c-18,4 -43,7 -56,7c-19,0 -24,5 -24,24l0,25l52,-18c28,-10 54,-23 56,-31zm-238,20c0,-14 -7,-20 -24,-20c-13,0 -38,-3 -55,-6c-46,-10 -38,12 12,29c57,21 67,20 67,-3zm0,-38c0,-5 -7,-30 -16,-56l-16,-47l-25,23c-14,13 -31,35 -39,50c-13,26 -13,27 14,31c50,7 82,7 82,-1zm208,2c12,-4 22,-11 22,-17c0,-17 -50,-77 -64,-77c-12,0 -36,60 -36,89c0,12 41,15 78,5zm-110,-74c12,-21 22,-41 22,-43c0,-10 -67,-16 -93,-9l-28,7l30,43c17,23 34,42 39,42c4,0 17,-18 30,-40z" id="svg_8"/>
   <path d="m1146,-1276c-9,-8 -16,-22 -16,-29c0,-17 27,-45 44,-45c15,0 46,32 46,48c0,15 -29,42 -45,42c-7,0 -21,-7 -29,-16zm53,-8c23,-28 -17,-68 -45,-45c-17,14 -18,31 -2,47c16,16 33,15 47,-2z" id="svg_9"/>
   <path d="m3815,-1122c-81,-30 -128,-97 -129,-183c-1,-143 152,-234 281,-167c127,66 135,248 13,328c-43,28 -120,39 -165,22zm37,-52c-2,-25 -9,-46 -14,-46c-17,0 -78,41 -78,51c0,11 80,50 90,44c3,-2 4,-24 2,-49zm38,9c0,-44 9,-65 27,-65c19,0 86,40 79,47c-3,3 -19,-5 -36,-17c-43,-31 -60,-21 -60,35l0,45l38,-15c20,-9 47,-26 59,-38l22,-22l-38,-41c-37,-39 -40,-40 -55,-23c-20,24 -73,25 -98,2c-18,-16 -21,-15 -60,24c-47,47 -38,63 15,28c20,-14 45,-25 56,-25c18,0 21,6 21,39c0,22 3,46 6,55c10,25 24,8 24,-29zm-122,-78c36,-38 33,-45 -27,-66c-51,-17 -54,-15 -46,26c8,42 22,73 33,73c5,0 23,-15 40,-33zm282,-15c8,-23 11,-44 8,-47c-7,-7 -69,3 -87,15c-11,6 -7,16 14,44c15,20 33,35 39,33c6,-2 18,-22 26,-45zm-124,-16c13,-22 14,-29 2,-53c-25,-52 -108,-35 -108,23c0,54 76,75 106,30zm-118,-61c-10,-9 -108,-16 -108,-7c0,5 24,18 53,28c51,19 52,19 55,1c2,-10 2,-20 0,-22zm200,22c59,-18 53,-33 -11,-28c-60,4 -59,3 -51,25c7,19 7,19 62,3zm-201,-64c-3,-16 -11,-41 -17,-58l-11,-30l-35,37c-52,58 -45,73 40,77c26,1 28,-1 23,-26zm152,-80c2,-26 -15,-12 -41,35c-25,44 -25,49 -10,59c15,9 19,4 34,-36c9,-25 17,-52 17,-58zm59,101c30,-6 31,-7 18,-33c-8,-14 -25,-36 -39,-49l-25,-23l-16,47c-9,26 -16,51 -16,56c0,10 35,10 78,2zm-157,-14c11,0 -53,-100 -65,-100c-4,0 -6,6 -3,14c3,8 11,33 18,55c9,29 17,40 27,36c7,-3 18,-5 23,-5zm52,-63c11,-20 18,-40 14,-43c-9,-9 -95,-10 -103,-1c-9,9 45,89 57,85c6,-2 20,-20 32,-41z" id="svg_10"/>
   <path d="m3854,-1268c-36,-25 -8,-91 34,-78c26,9 39,50 22,71c-13,16 -38,19 -56,7zm47,-18c9,-11 10,-20 3,-32c-15,-23 -29,-25 -48,-7c-12,12 -13,21 -6,36c13,23 33,25 51,3z" id="svg_11"/>
  </g>
  <text fill="#ff0000" font-family="Serif" font-size="24" font-weight="bold" id="svg_12" stroke="#000000" stroke-width="0" text-anchor="middle" transform="rotate(1.89723 293.263 105.521) matrix(1.20275 0 0 0.91755 5.97532 18.7187)" x="238.86" xml:space="preserve" y="102.55">prius</text>
 </g>
</svg>