<?xml version="1.0" standalone="no"?>
<!DOCTYPE svg PUBLIC "-//W3C//DTD SVG 20010904//EN"
 "http://www.w3.org/TR/2001/REC-SVG-20010904/DTD/svg10.dtd">
<svg version="1.0" xmlns="http://www.w3.org/2000/svg"
 width="506.000000pt" height="173.000000pt" viewBox="0 0 506.000000 173.000000"
 preserveAspectRatio="xMidYMid meet">
<metadata>
Created by potrace 1.16, written by Peter Selinger 2001-2019
</metadata>
<g transform="translate(0.000000,173.000000) scale(0.100000,-0.100000)"
stroke="none">
<path d="M1935 1664 c-371 -23 -842 -135 -1210 -287 -99 -42 -101 -42 -255
-47 l-155 -5 70 -49 c39 -27 72 -51 74 -52 3 -3 -23 -193 -54 -389 -4 -24 -17
-37 -60 -63 l-55 -33 0 -154 0 -153 78 -18 c64 -16 84 -25 123 -61 l46 -43
150 0 149 0 -1 103 c0 90 3 109 26 158 56 119 165 191 299 197 99 5 170 -21
245 -89 99 -92 140 -230 101 -349 -9 -28 -14 -55 -11 -60 4 -6 391 -10 1040
-10 l1033 0 -19 61 c-24 78 -24 131 1 212 26 84 96 164 178 204 50 25 68 28
152 28 84 0 101 -3 148 -28 67 -35 124 -92 159 -159 24 -46 27 -65 28 -143 0
-49 -3 -102 -8 -117 l-7 -28 216 0 c151 0 233 4 273 14 31 8 68 17 84 20 24 6
27 11 27 50 0 38 -3 45 -25 50 -19 5 -25 13 -25 35 0 22 7 31 30 41 30 12 30
12 30 97 0 76 -3 88 -25 115 -17 20 -25 42 -25 66 0 52 -50 134 -113 183 -138
110 -457 204 -736 216 l-134 6 -181 88 c-434 209 -784 329 -1096 374 -103 15
-448 26 -565 19z m476 -35 c57 -5 151 -19 208 -30 146 -28 466 -129 630 -198
177 -75 506 -234 493 -239 -6 -2 -77 27 -159 63 -663 298 -917 370 -1378 390
-248 12 -592 -21 -805 -75 -112 -28 -277 -87 -518 -184 -118 -47 -222 -86
-232 -86 -17 0 -47 27 -39 34 10 8 235 93 354 133 313 105 598 167 905 196 86
9 448 6 541 -4z m-106 -29 c372 -27 646 -105 1108 -312 346 -155 304 -142 447
-139 247 5 591 -82 741 -187 75 -53 74 -62 -8 -62 -52 0 -79 6 -115 24 -26 13
-80 30 -120 36 -40 7 -180 50 -310 97 -131 47 -242 83 -247 81 -5 -1 80 -34
190 -73 l200 -70 -52 -5 c-29 -3 -54 -10 -56 -17 -3 -7 25 -31 62 -54 36 -23
64 -43 62 -46 -2 -2 -174 10 -381 27 -208 16 -379 30 -382 30 -2 0 -4 25 -4
55 l0 56 135 -7 c98 -5 135 -4 135 4 0 65 -637 367 -941 446 -224 58 -334 71
-614 70 -281 0 -398 -13 -650 -69 -123 -28 -391 -110 -399 -123 -2 -4 30 -46
72 -94 76 -87 77 -88 125 -88 27 0 47 -5 47 -11 0 -16 -33 -69 -42 -69 -32 0
-516 42 -528 45 -9 3 -39 29 -68 58 l-53 53 268 106 c400 158 514 190 788 223
218 25 386 30 590 15z m-125 -65 c0 -10 -10 -15 -27 -15 -140 -1 -427 -26
-525 -46 -22 -4 -27 -2 -23 9 10 25 291 64 478 66 80 1 97 -2 97 -14z m92
-170 c35 -234 35 -233 1 -238 -27 -4 -27 -4 3 -6 29 -1 32 -4 41 -51 6 -30 6
-50 1 -50 -25 0 -909 71 -945 76 l-43 5 16 30 c8 17 22 33 30 36 8 3 204 -5
434 -17 231 -13 422 -22 424 -19 2 2 -5 76 -15 164 -9 88 -20 182 -23 208 -5
48 -5 48 22 45 26 -3 26 -3 54 -183z m74 -10 c42 -241 42 -227 2 -223 l-33 3
-27 175 c-14 96 -27 190 -27 208 -1 30 1 33 26 30 27 -3 27 -4 59 -193z m284
149 c156 -30 312 -80 490 -156 l125 -53 3 -53 c3 -47 1 -52 -17 -52 -17 0 -21
6 -21 34 0 28 -7 40 -32 60 -64 48 -345 149 -503 180 -66 13 -308 46 -337 46
-4 0 -8 8 -8 18 0 17 7 17 83 10 45 -4 143 -19 217 -34z m-1929 -305 c32 -29
59 -56 59 -61 0 -13 -189 -272 -201 -276 -13 -5 -12 2 16 154 27 147 26 155
-26 192 -23 16 -23 16 26 28 28 6 54 12 58 13 5 0 35 -22 68 -50z m-165 0 c49
-30 53 -44 40 -124 l-12 -70 -49 3 c-28 2 -52 5 -54 8 -4 3 15 135 26 182 6
27 7 27 49 1z m2967 -25 c74 -37 187 -114 187 -126 0 -8 -35 -9 -112 -5 -62 4
-136 7 -164 7 -50 0 -52 1 -56 30 -4 28 -3 30 29 30 31 0 33 3 44 45 6 25 13
45 16 45 2 0 27 -12 56 -26z m-2453 -64 c129 -11 241 -20 248 -20 8 0 12 -17
12 -50 0 -70 17 -105 119 -244 134 -184 151 -211 176 -284 34 -100 35 -102 66
-117 24 -13 151 -15 877 -15 755 0 851 2 862 15 9 11 26 15 54 13 38 -3 41 -5
47 -38 3 -19 9 -45 13 -57 l7 -23 -1004 0 -1004 0 14 65 c54 264 -186 493
-451 431 l-69 -16 -27 25 c-24 23 -41 26 -215 45 -104 11 -190 21 -191 23 -1
1 41 62 94 135 70 96 102 132 116 132 12 0 127 -9 256 -20z m1777 -25 c283
-22 293 -24 323 -48 32 -28 76 -37 180 -40 62 -2 65 -1 64 21 0 16 4 22 15 20
12 -2 17 -17 19 -56 l3 -53 -63 6 c-35 4 -278 24 -541 44 -263 21 -482 42
-486 47 -5 5 -11 29 -15 53 l-7 43 108 -7 c59 -4 240 -17 400 -30z m-957 -41
c250 -19 457 -38 460 -41 3 -2 5 -112 5 -243 0 -168 -3 -242 -12 -251 -8 -8
-102 9 -385 70 -205 45 -380 84 -389 87 -17 5 -174 215 -208 279 -20 38 -29
123 -15 138 4 3 25 4 48 1 22 -2 246 -20 496 -40z m1005 -79 c248 -19 474 -37
504 -41 l54 -6 -8 -241 c-3 -133 -10 -245 -13 -249 -6 -6 -1043 58 -1068 67
-7 2 -8 27 -2 81 5 44 8 159 6 256 l-3 177 40 -5 c22 -2 243 -20 490 -39z
m-2318 21 c2 -2 -3 -32 -10 -67 -12 -62 -14 -65 -59 -89 -26 -13 -49 -22 -53
-19 -3 4 0 48 6 99 l12 92 51 -7 c28 -3 52 -8 53 -9z m3741 -26 c143 -23 199
-48 260 -114 68 -74 62 -77 -108 -47 -63 11 -126 29 -157 45 -63 31 -190 112
-198 126 -10 16 69 12 203 -10z m-408 -75 c310 -24 390 -35 390 -55 0 -3 -40
-29 -88 -56 l-89 -51 -48 28 c-99 57 -234 60 -341 8 -104 -50 -188 -164 -202
-276 l-7 -58 -39 -3 -39 -3 6 182 c4 100 7 214 7 252 l0 69 53 -6 c28 -3 207
-17 397 -31z m825 -47 c24 -51 32 -98 19 -110 -13 -14 -107 41 -126 74 -11 18
-32 45 -46 61 l-26 27 78 0 77 0 24 -52z m-3939 -8 c139 -15 192 -25 206 -37
25 -22 23 -37 -8 -54 -46 -24 -122 -117 -145 -177 -16 -41 -23 -79 -23 -139
l-1 -83 -130 0 -129 0 -38 37 -38 37 0 152 0 151 50 67 c28 36 55 66 60 66 4
0 93 -9 196 -20z m-275 -53 l-41 -54 0 -151 c0 -115 -3 -152 -12 -152 -7 0
-40 8 -73 18 l-60 18 -3 132 -3 131 43 27 c49 31 181 94 186 89 2 -2 -15 -28
-37 -58z m3859 29 c25 -7 90 -19 145 -26 66 -9 122 -23 163 -42 l64 -28 -7
-147 c-4 -82 -10 -151 -14 -154 -3 -4 -23 -12 -44 -19 -50 -16 -216 -4 -224
16 -9 25 27 218 46 244 16 22 28 26 97 31 l79 5 -77 2 c-113 3 -124 -12 -149
-204 l-12 -94 -87 0 -87 0 -6 66 c-8 80 -45 165 -94 216 -20 21 -33 41 -29 45
16 17 162 101 176 102 8 0 35 -5 60 -13z m-2417 -238 c207 -45 377 -87 377
-92 0 -6 -5 -28 -11 -48 l-10 -38 -303 0 c-355 0 -340 -4 -376 108 -12 37 -33
86 -47 110 -13 23 -20 42 -16 42 4 0 178 -37 386 -82z m907 -118 c518 -34 557
-37 543 -51 -5 -5 -224 -8 -544 -7 l-535 3 9 43 c7 37 11 42 35 42 15 0 236
-13 492 -30z m1911 -50 c26 -14 24 -38 -3 -50 -67 -28 -166 -40 -339 -40
l-180 0 3 33 3 32 215 0 c184 0 219 2 245 17 36 21 32 20 56 8z"/>
<path d="M901 1014 c-25 -20 -31 -34 -31 -64 0 -30 6 -44 31 -64 33 -28 59
-32 92 -14 33 17 46 39 46 78 0 39 -13 61 -46 78 -33 18 -59 14 -92 -14z m104
-9 c16 -15 25 -36 25 -55 0 -38 -39 -80 -75 -80 -33 0 -75 42 -75 75 0 74 76
110 125 60z"/>
<path d="M1465 1040 c-87 -35 -28 -120 82 -120 86 0 129 32 104 78 -21 40
-132 65 -186 42z"/>
<path d="M2433 970 c-32 -13 -46 -45 -33 -71 33 -60 207 -66 225 -8 20 61
-107 113 -192 79z"/>
<path d="M1079 745 c-110 -35 -193 -121 -225 -233 -44 -152 36 -321 185 -391
l56 -26 -400 -5 c-220 -3 658 -5 1950 -5 1293 0 2116 2 1830 5 l-520 5 55 26
c117 55 186 153 197 278 16 193 -138 361 -333 361 -101 0 -214 -61 -270 -144
-96 -145 -75 -319 52 -435 30 -28 73 -56 95 -62 21 -7 39 -16 39 -21 0 -4
-569 -8 -1265 -8 -696 0 -1265 2 -1265 4 0 2 24 16 54 30 70 34 128 93 163
164 39 80 39 191 1 273 -69 150 -248 232 -399 184z m207 -130 c170 -99 127
-363 -66 -404 -64 -14 -113 -4 -169 33 -54 36 -101 118 -101 176 0 174 187
282 336 195z m2691 7 c76 -40 117 -108 118 -197 1 -195 -237 -293 -375 -155
-176 176 35 465 257 352z"/>
<path d="M1105 605 c-22 -8 -54 -30 -72 -49 -114 -124 -26 -321 142 -319 74 0
139 42 175 111 33 65 2 188 -57 230 -61 42 -121 51 -188 27z m45 -40 c0 -56
-17 -66 -60 -35 -17 12 -33 20 -36 17 -9 -8 65 -49 83 -45 13 2 19 14 21 43 1
22 5 47 8 55 9 22 22 -15 23 -62 1 -32 5 -38 22 -38 11 0 33 8 47 18 64 44 70
35 18 -27 -33 -39 -34 -40 -51 -21 -23 26 -80 26 -101 1 -15 -17 -18 -16 -54
23 l-39 41 25 26 c14 15 40 31 57 37 18 5 33 10 35 11 1 1 2 -19 2 -44z m71
-106 c6 -12 9 -33 6 -47 -3 -15 3 -53 14 -86 15 -51 18 -81 6 -65 -35 45 -64
99 -52 99 7 0 16 3 18 8 3 4 -14 7 -38 7 -24 0 -41 -3 -38 -7 2 -5 11 -8 19
-8 9 0 2 -17 -22 -50 -20 -28 -39 -49 -41 -46 -3 3 2 24 12 48 9 24 17 65 16
92 -1 60 11 76 55 76 24 0 37 -6 45 -21z"/>
<path d="M3815 608 c-81 -30 -128 -97 -129 -183 -1 -143 152 -234 281 -167
127 66 135 248 13 328 -43 28 -120 39 -165 22z m75 -43 c0 -44 9 -65 27 -65
19 0 86 40 79 47 -3 3 -19 -5 -36 -17 -43 -31 -60 -21 -60 35 l0 45 38 -15
c20 -9 47 -26 59 -38 l22 -22 -38 -41 c-37 -39 -40 -40 -55 -23 -20 24 -73 25
-98 2 -18 -16 -21 -15 -60 24 -47 47 -38 63 15 28 20 -14 45 -25 56 -25 18 0
21 6 21 39 0 22 3 46 6 55 10 25 24 8 24 -29z"/>
</g>
</svg>
